<svg version="1.1" viewBox="0 0 170 45" xml:space="preserve" xmlns="http://www.w3.org/2000/svg" xmlns:cc="http://creativecommons.org/ns#" xmlns:dc="http://purl.org/dc/elements/1.1/" xmlns:rdf="http://www.w3.org/1999/02/22-rdf-syntax-ns#"><metadata><rdf:rdf><cc:work rdf:about=""><dc:format>image/svg+xml</dc:format><dc:type rdf:resource="http://purl.org/dc/dcmitype/StillImage"><dc:title></dc:title></dc:type></cc:work></rdf:rdf></metadata><g transform="matrix(.1984 0 0 .1984 -99 -78.413)"><path fill="#1C1A38" d="m811.46 489.94c12.55-11.59 26.62-15.26 42.4-11.41 11 2.69 17.97 11.05 18.17 22.43 0.4 22.06 0.15 44.13 0.23 66.2 0.01 1.89-0.56 2.54-2.46 2.46-3.17-0.13-6.35 0.03-9.52-0.05-6.92-0.17-11.67-5.09-11.7-12.28-0.07-12.69-0.02-25.38-0.02-38.08 0-1.15 0.02-2.31 0-3.46-0.26-13.78-7.93-19.87-21.53-17.06-2.98 0.62-5.8 1.71-8.42 3.26-4.7 2.79-7.48 6.18-7.31 12.4 0.47 17.15 0.09 34.32 0.23 51.49 0.03 2.97-0.62 4.14-3.74 3.81-2.71-0.29-5.48-0.02-8.22-0.07-7.41-0.12-12.19-5.03-12.2-12.7-0.04-23.08-0.01-46.15-0.01-69.23 0-9.95-0.02-19.9 0.01-29.86 0.02-7.93 4.01-11.99 11.88-12.16 3.03-0.07 6.1 0.21 9.07-0.24 3.02-0.45 3.21 0.83 3.19 3.25-0.09 13.53-0.05 27.07-0.05 41.3z"></path><path fill="#1C1A38" d="m765.42 506.16c-8.27-7.2-17.49-10.6-28.05-10.33-3.25 0.08-6.27 0.93-8.97 2.72-2.14 1.42-3.67 3.37-3.48 6.08 0.18 2.68 2.31 3.96 4.46 4.81 6.06 2.39 12.55 3.12 18.86 4.56 5.62 1.28 11.17 2.8 16.25 5.58 17.35 9.48 18.51 33.35 2.07 44.35-9.63 6.45-20.58 7.83-31.86 7.21-12.2-0.67-23.42-4.23-33.37-11.54-2.07-1.52-2.55-2.86-0.86-4.84 0.18-0.21 0.28-0.5 0.41-0.76 5.23-10.35 9.87-12.26 20.19-6.38 7.25 4.13 15.36 5.58 23.78 4.57 2.49-0.3 4.8-1.05 6.81-2.5 4.91-3.55 4.47-9.47-0.98-12.05-5.66-2.67-11.9-3.25-17.93-4.6-4.91-1.1-9.8-2.27-14.46-4.24-9.17-3.89-15.25-10.18-16.04-20.57-0.86-11.34 3.77-19.91 13.51-25.56 10.62-6.16 22.14-6.64 33.92-4.62 5.7 0.98 11.18 2.73 16.29 5.5 5.71 3.09 7.4 8.12 4.5 13.79-1.49 2.92-3.26 5.71-5.05 8.82z"></path><path fill="#1C1A38" d="m1306.3 490.51c5.44-4.88 10.88-9.02 17.46-11.46 10.31-3.83 10.93-3.47 10.93 7.09 0 2.74-0.06 5.48 0.01 8.22 0.1 3.63-1.71 5.28-5.22 5.38-4.48 0.13-8.91 0.52-13.13 2.18-7.32 2.86-10.38 7.3-10.38 15.08 0 16.29-0.08 32.58 0.07 48.87 0.03 2.99-0.66 4.11-3.76 3.79-2.71-0.28-5.47-0.03-8.21-0.06-7.43-0.09-11.85-4.58-11.89-12.3-0.07-14.13-0.02-28.25-0.02-42.38 0-8.22-0.03-16.43 0.01-24.65 0.03-6.69 3.56-10.33 10.28-10.7 0.86-0.05 1.73-0.02 2.59-0.01 3.44 0.07 7.8-1.11 10.08 0.56 2.48 1.79 0.29 6.43 1.18 10.39z"></path><path fill="#1C1A38" d="m1076.1 504.87c-5.95-19.7-22.96-30.3-43.22-27.24-8.41 1.27-15.21 5.56-21.53 12.49 0-3.03-0.17-4.92 0.04-6.76 0.34-2.96-0.62-4.18-3.76-3.89-2.86 0.27-5.77-0.04-8.65 0.08-7.23 0.3-11.69 4.92-11.72 12.17-0.05 11.1-0.01 22.2-0.01 33.3 0 21.91-0.03 43.83 0.02 65.74 0.01 7.4 4.84 12.32 12 12.43 2.88 0.04 5.79-0.21 8.65 0.07 3.01 0.29 3.52-0.98 3.49-3.66-0.13-12.69-0.08-25.37-0.02-38.06 0-0.98-0.71-2.3 0.75-2.98 17.29 20.78 53.14 15.84 63.19-12.91 4.69-13.46 4.88-27.16 0.77-40.78zm-22.5 26.84c-2.08 8.72-6.94 15.32-15.93 17.56-9.44 2.34-17.55-0.89-24.44-7.48-1.44-1.38-1.97-3.01-1.91-5.03 0.12-4.32 0.04-8.64 0.04-12.96 0-3.6 0.25-7.22-0.07-10.8-0.33-3.72 1.08-6.31 3.9-8.5 7.43-5.77 15.62-8.16 24.63-4.74 8.99 3.41 13.09 10.72 14.3 19.93 0.51 4.05 0.41 8.09-0.52 12.02z"></path><path fill="#1C1A38" d="m1171 501.08c-9.97-26.16-41.75-32.27-61.62-12.53-0.44 0.44-0.84 0.75-1.46 0.38-0.27-9.4-0.27-9.4-9.88-9.39h-0.87c-9 0.04-13.29 4.28-13.29 13.17-0.01 30.59 0.34 61.19-0.15 91.77-0.23 14.62 3.26 19.61 18.78 18.87 4.07-0.19 5.58-0.68 5.45-5.27-0.38-13.05-0.13-26.12-0.13-39.29 1.85 0.23 2.45 1.52 3.33 2.37 14.96 14.5 40.63 13.43 53.38-3.07 13.49-17.44 13.97-37.29 6.46-57.01zm-20.35 27.65c-1.47 9.06-5.37 16.55-14.46 19.85-9.24 3.35-17.51 0.73-24.89-5.33-2.46-2.02-3.84-4.36-3.53-7.8 0.34-3.86 0.08-7.77 0.08-11.66 0-3.74 0.21-7.5-0.06-11.23-0.24-3.39 1.09-5.7 3.56-7.81 8.08-6.88 19.39-8.48 27.73-3.76 8.66 4.9 13.42 16.32 11.57 27.74z"></path><path fill="#1C1A38" d="m929.14 476.94c-27.46 0.19-47.05 19.64-47.08 46.76-0.04 27.92 19.35 47.45 47.12 47.47 27.85 0.02 47.61-19.47 47.7-47.07 0.09-27.28-20.24-47.35-47.74-47.16zm21.87 55.59c-2.96 11.01-10.89 17.43-21.74 17.43-10.69 0-18.86-6.63-21.63-17.59-0.67-2.66-1.09-5.37-1.01-7.01-0.05-13.06 5.9-22.8 15.17-25.94 14.01-4.75 27.89 4.22 29.94 19.41 0.62 4.6 0.49 9.16-0.73 13.7z"></path><path fill="#1C1A38" d="m1273 525.62c-0.28-4.29-0.78-8.64-1.77-12.81-3.88-16.22-11.98-29.35-29.06-33.88-17.43-4.63-33.69-1.58-46.64 11.79-13.73 14.19-16.49 31.41-10.66 49.73 5.66 17.8 18.82 27.44 37.07 30.06 13.8 1.98 27.03 0.08 39.03-7.54 4.29-2.72 4.88-5.59 2.22-9.82-1.76-2.81-3.72-5.49-5.47-8.3-0.89-1.44-1.6-1.65-2.95-0.48-4.39 3.81-9.76 5.52-15.32 6.52-10.83 1.94-20.74 0.51-28.13-8.72-1.54-1.93-2.85-4.08-1.51-6.73 1.36-2.69 3.68-3.29 6.5-3.26 8.23 0.09 16.45 0.03 24.68 0.03 8.52 0 17.03 0.03 25.55-0.01 4.68-0.03 6.75-1.96 6.46-6.58zm-24.94-10.55c-6.48-0.1-12.96-0.04-19.44-0.04-6.19 0-12.39-0.11-18.57 0.05-2.65 0.07-3.18-0.73-2.55-3.22 2.39-9.46 10.61-15.42 21.35-15.3 11.17 0.13 19.28 6.16 21.46 15.78 0.49 2.21-0.11 2.76-2.25 2.73z"></path><path fill="#0DAB77" d="m1122.2 618.99-0.01-7.21 5.12-0.01 0.01 7.21z"></path><path fill="#0DAB77" d="m1145.5 619.51c-2.29 0-4.36-0.39-6.22-1.19s-3.47-1.9-4.82-3.31-2.4-3.03-3.13-4.85-1.11-3.75-1.11-5.8c0-2.75 0.62-5.26 1.87-7.54 1.25-2.27 3.01-4.1 5.28-5.48s4.96-2.07 8.08-2.08c3-0.01 5.62 0.66 7.86 1.98s3.88 3.1 4.94 5.31l-6.02 1.93c-0.68-1.24-1.63-2.2-2.85-2.89s-2.56-1.04-4.03-1.03c-1.65 0-3.14 0.42-4.47 1.26-1.33 0.83-2.38 1.98-3.15 3.45-0.77 1.46-1.15 3.16-1.14 5.08 0 1.85 0.4 3.52 1.19 5.02s1.85 2.68 3.19 3.55c1.33 0.87 2.83 1.3 4.48 1.3 1.01 0 2-0.18 2.96-0.54s1.79-0.85 2.5-1.47 1.22-1.31 1.52-2.06l6.09 1.79c-0.64 1.46-1.58 2.76-2.84 3.89s-2.74 2.02-4.44 2.68c-1.73 0.66-3.63 1-5.74 1z"></path><path fill="#0DAB77" d="m1175.2 619.45c-2.33 0-4.41-0.39-6.25-1.19s-3.43-1.9-4.77-3.31c-1.33-1.41-2.36-3.02-3.08-4.82s-1.08-3.73-1.08-5.77 0.35-3.98 1.06-5.8 1.73-3.43 3.06-4.83 2.92-2.5 4.78-3.3 3.93-1.21 6.22-1.21 4.36 0.39 6.22 1.19 3.46 1.89 4.79 3.28 2.36 3 3.08 4.82 1.08 3.75 1.08 5.8-0.35 3.97-1.06 5.78c-0.71 1.8-1.73 3.42-3.06 4.83-1.33 1.42-2.92 2.53-4.78 3.33-1.85 0.79-3.92 1.2-6.21 1.2zm-8.81-15.04c0 1.85 0.4 3.52 1.19 4.99s1.84 2.64 3.16 3.49 2.8 1.27 4.45 1.27c1.61 0 3.09-0.44 4.42-1.31s2.39-2.06 3.17-3.56 1.18-3.16 1.17-4.97c0-1.85-0.4-3.52-1.19-4.99s-1.85-2.65-3.19-3.52c-1.33-0.87-2.81-1.3-4.42-1.3-1.65 0-3.13 0.45-4.45 1.34-1.31 0.89-2.36 2.07-3.15 3.53-0.78 1.47-1.17 3.14-1.16 5.03z"></path><path fill="#0DAB77" d="m1239.5 618.77-6.2 0.01-0.03-16.31c-0.01-2.71-0.46-4.69-1.36-5.95s-2.22-1.89-3.95-1.88c-1.73 0-3.33 0.65-4.81 1.93s-2.52 2.95-3.12 4.99l0.03 17.25-6.19 0.01-0.03-16.31c0-2.71-0.46-4.69-1.36-5.95s-2.2-1.89-3.89-1.89c-1.73 0-3.33 0.63-4.81 1.89s-2.54 2.9-3.17 4.93l0.03 17.35-6.2 0.01-0.06-29.22 5.63-0.01 0.01 5.91c1.16-2.05 2.69-3.62 4.58-4.72s4.06-1.65 6.5-1.66 4.36 0.62 5.77 1.89c1.41 1.26 2.29 2.84 2.63 4.74 1.27-2.16 2.84-3.81 4.69-4.94 1.86-1.14 3.99-1.71 6.39-1.71 1.73 0 3.17 0.31 4.34 0.94s2.07 1.49 2.71 2.59 1.1 2.36 1.39 3.79 0.43 2.95 0.43 4.54z"></path><path fill="#0DAB77" d="m1245 618.75-0.01-7.21 5.12-0.01 0.01 7.21z"></path><path fill="#0DAB77" d="m1271.7 619.27c-2.25 0-4.29-0.53-6.11-1.59-1.82-1.07-3.26-2.5-4.32-4.3l0.01 5.35-5.46 0.01-0.08-41.11 6.19-0.01 0.03 17.51c1.16-1.88 2.61-3.36 4.36-4.46 1.74-1.09 3.8-1.64 6.16-1.64 1.95 0 3.74 0.4 5.35 1.22s3 1.93 4.15 3.34 2.03 3.03 2.66 4.85c0.62 1.82 0.94 3.76 0.94 5.8 0 2.05-0.34 3.98-1.03 5.8s-1.67 3.43-2.95 4.8c-1.28 1.38-2.75 2.46-4.41 3.24-1.67 0.79-3.5 1.18-5.49 1.19zm-1.64-5.29c1.35 0 2.59-0.27 3.71-0.81s2.1-1.25 2.92-2.14 1.45-1.93 1.88-3.11c0.43-1.19 0.64-2.41 0.64-3.67 0-1.74-0.37-3.37-1.11-4.88-0.73-1.52-1.76-2.73-3.08-3.66-1.32-0.92-2.84-1.38-4.56-1.38-1.24 0-2.4 0.29-3.49 0.87s-2.05 1.34-2.9 2.28c-0.84 0.95-1.54 1.99-2.1 3.14l0.01 7.66c0.23 0.85 0.62 1.62 1.19 2.3 0.56 0.68 1.22 1.27 1.97 1.77s1.56 0.89 2.42 1.19 1.71 0.44 2.5 0.44z"></path><path fill="#0DAB77" d="m1306.3 594.54c-2.4 0.04-4.53 0.59-6.39 1.65s-3.18 2.54-3.96 4.46l0.04 18.02-6.19 0.01-0.06-29.22 5.74-0.01 0.01 6.36c1.01-2.03 2.34-3.66 3.99-4.88s3.39-1.89 5.23-2.01h0.93c0.24 0 0.46 0.02 0.65 0.05z"></path><path fill="#0DAB77" d="m603.97 469.83c-11.3 12.66-29.23 15.53-41.47 6.74l-23.64 28.73c2.06 1.56 4.2 2.95 6.41 4.18-13.34-6.67-22.49-20.45-22.49-36.38 0-22.45 18.2-40.65 40.66-40.65 21.35 0 38.87 16.46 40.53 37.38z"></path><path fill="#44B281" d="m604.1 473.1c0 22.46-18.21 40.66-40.66 40.66-6.53 0-12.7-1.54-18.17-4.28-2.21-1.23-4.35-2.62-6.41-4.18l23.64-28.73c12.24 8.79 30.17 5.92 41.47-6.74 0.09 1.08 0.13 2.17 0.13 3.27z"></path><path fill="#10453B" d="m662.42 500.88c-14.98 13.36-36.33 15.01-52.85 5.59 7.2-4.35 13.87-10.05 19.62-17.04 8.61-10.46 13.99-22.41 16.19-34.45l20.68-18.44c0.01 0.02 0.03 0.03 0.04 0.05 16.74 18.77 15.09 47.56-3.68 64.29z"></path><path fill="#1C6150" d="m645.38 454.98c-2.2 12.04-7.58 23.99-16.19 34.45-5.75 6.99-12.42 12.69-19.62 17.04-4.18-2.39-8.06-5.49-11.44-9.28-0.02-0.01-0.03-0.03-0.05-0.05z"></path><path fill="#3BB289" d="m645.38 454.98-47.3 42.16c0.02 0.02 0.03 0.04 0.05 0.05 3.38 3.79 7.26 6.89 11.44 9.28-20.39 12.33-44.93 13.82-64.3 3.01 5.47 2.74 11.64 4.28 18.17 4.28 22.45 0 40.66-18.2 40.66-40.66 0-1.1-0.04-2.19-0.13-3.27 0.35-0.38 0.68-0.77 1.01-1.17 11.23-13.65 10.89-32.58-0.43-43.21l22.8-27.71c15.83 14.16 21.94 35.84 18.03 57.24z"></path><path fill="#0DAB77" d="m520.1 493.46c0 47.97 39.44 86.33 86.3 81.61 35.06-3.53 63.99-31.84 69.65-68.15 0.7-4.46 1.04-8.86 1.05-13.18z"></path><path fill="#FFFFFF" d="m598.6 556.84c-23.68 0-42.95-20.13-42.95-44.87h7.81c0 20.24 15.77 36.71 35.14 36.71 19.38 0 35.14-16.47 35.14-36.71h7.81c0 24.74-19.27 44.87-42.95 44.87z"></path></g></svg>